<svg xmlns="http://www.w3.org/2000/svg" viewBox="0 0 1200 720" role="img" aria-label="焼肉 黒耀 React版 プレビュー">
  <defs>
    <linearGradient id="goldG" x1="0" y1="0" x2="1" y2="1">
      <stop offset="0" stop-color="#d9bc85"/><stop offset="0.6" stop-color="#c9a96e"/><stop offset="1" stop-color="#a8884f"/>
    </linearGradient>
    <linearGradient id="bgG" x1="0" y1="0" x2="1" y2="1">
      <stop offset="0" stop-color="#161310"/><stop offset="1" stop-color="#0a0a0a"/>
    </linearGradient>
  </defs>
  <rect width="1200" height="720" fill="url(#bgG)"/>
  <circle cx="250" cy="180" r="260" fill="#c9a96e" opacity="0.05"/>
  <circle cx="980" cy="560" r="220" fill="#b4380a" opacity="0.05"/>

  <!-- Laptop -->
  <g transform="translate(120,120)">
    <rect x="0" y="0" width="740" height="440" rx="14" fill="#111111" stroke="#c9a96e" stroke-opacity="0.25"/>
    <rect x="16" y="16" width="708" height="408" rx="8" fill="#0c0b09"/>
    <!-- top bar -->
    <rect x="16" y="16" width="708" height="56" rx="8" fill="#161310"/>
    <text x="40" y="50" font-family="Georgia, 'Times New Roman', serif" font-size="22" fill="#f5f0e8" letter-spacing="3">焼肉 黒耀</text>
    <text x="150" y="49" font-family="Arial, sans-serif" font-size="10" fill="#c9a96e" letter-spacing="3">RESERVATION</text>
    <rect x="612" y="32" width="92" height="26" rx="3" fill="url(#goldG)"/>
    <text x="658" y="49" text-anchor="middle" font-family="Arial, sans-serif" font-size="11" fill="#0a0a0a" letter-spacing="2">RESERVE</text>
    <!-- heading -->
    <text x="40" y="120" font-family="Arial, sans-serif" font-size="10" fill="#c9a96e" letter-spacing="4">ONLINE RESERVATION</text>
    <text x="40" y="150" font-family="Georgia, serif" font-size="26" fill="#f5f0e8" letter-spacing="2">ご来店日を選ぶ</text>
    <!-- calendar grid -->
    <g transform="translate(40,180)">
      <rect x="0" y="0" width="430" height="200" rx="8" fill="#111111" stroke="#c9a96e" stroke-opacity="0.18"/>
<rect x="18" y="18" width="46" height="34" rx="4" fill="#1a1814" stroke="#c9a96e" stroke-opacity="0.10"/><rect x="76" y="18" width="46" height="34" rx="4" fill="#1a1814" stroke="#c9a96e" stroke-opacity="0.10"/><rect x="134" y="18" width="46" height="34" rx="4" fill="#1a1814" stroke="#c9a96e" stroke-opacity="0.10"/><rect x="192" y="18" width="46" height="34" rx="4" fill="#1a1814" stroke="#c9a96e" stroke-opacity="0.10"/><rect x="250" y="18" width="46" height="34" rx="4" fill="#1a1814" stroke="#c9a96e" stroke-opacity="0.10"/><rect x="308" y="18" width="46" height="34" rx="4" fill="url(#goldG)"/><rect x="366" y="18" width="46" height="34" rx="4" fill="#1a1814" stroke="#c9a96e" stroke-opacity="0.10"/><rect x="18" y="62" width="46" height="34" rx="4" fill="#1a1814" stroke="#c9a96e" stroke-opacity="0.10"/><rect x="76" y="62" width="46" height="34" rx="4" fill="#1a1814" stroke="#c9a96e" stroke-opacity="0.10"/><rect x="134" y="62" width="46" height="34" rx="4" fill="url(#goldG)"/><rect x="192" y="62" width="46" height="34" rx="4" fill="#1a1814" stroke="#c9a96e" stroke-opacity="0.10"/><rect x="250" y="62" width="46" height="34" rx="4" fill="#1a1814" stroke="#c9a96e" stroke-opacity="0.10"/><rect x="308" y="62" width="46" height="34" rx="4" fill="#1a1814" stroke="#c9a96e" stroke-opacity="0.10"/><rect x="366" y="62" width="46" height="34" rx="4" fill="#1a1814" stroke="#c9a96e" stroke-opacity="0.10"/><rect x="18" y="106" width="46" height="34" rx="4" fill="#1a1814" stroke="#c9a96e" stroke-opacity="0.10"/><rect x="76" y="106" width="46" height="34" rx="4" fill="#1a1814" stroke="#c9a96e" stroke-opacity="0.10"/><rect x="134" y="106" width="46" height="34" rx="4" fill="#1a1814" stroke="#c9a96e" stroke-opacity="0.10"/><rect x="192" y="106" width="46" height="34" rx="4" fill="#1a1814" stroke="#c9a96e" stroke-opacity="0.10"/><rect x="250" y="106" width="46" height="34" rx="4" fill="url(#goldG)"/><rect x="308" y="106" width="46" height="34" rx="4" fill="#1a1814" stroke="#c9a96e" stroke-opacity="0.10"/><rect x="366" y="106" width="46" height="34" rx="4" fill="#1a1814" stroke="#c9a96e" stroke-opacity="0.10"/><rect x="18" y="150" width="46" height="34" rx="4" fill="#1a1814" stroke="#c9a96e" stroke-opacity="0.10"/><rect x="76" y="150" width="46" height="34" rx="4" fill="url(#goldG)"/><rect x="134" y="150" width="46" height="34" rx="4" fill="#1a1814" stroke="#c9a96e" stroke-opacity="0.10"/><rect x="192" y="150" width="46" height="34" rx="4" fill="#1a1814" stroke="#c9a96e" stroke-opacity="0.10"/><rect x="250" y="150" width="46" height="34" rx="4" fill="#1a1814" stroke="#c9a96e" stroke-opacity="0.10"/><rect x="308" y="150" width="46" height="34" rx="4" fill="#1a1814" stroke="#c9a96e" stroke-opacity="0.10"/><rect x="366" y="150" width="46" height="34" rx="4" fill="#1a1814" stroke="#c9a96e" stroke-opacity="0.10"/>
    </g>
    <!-- summary panel -->
    <g transform="translate(500,180)">
      <rect x="0" y="0" width="184" height="200" rx="8" fill="#161310" stroke="#c9a96e" stroke-opacity="0.18"/>
      <text x="16" y="28" font-family="Arial, sans-serif" font-size="9" fill="#c9a96e" letter-spacing="3">YOUR RESERVATION</text>
      <line x1="16" y1="40" x2="168" y2="40" stroke="#c9a96e" stroke-opacity="0.2"/>
      <rect x="16" y="56" width="100" height="9" rx="2" fill="#3a372f"/>
      <rect x="120" y="56" width="48" height="9" rx="2" fill="#b8b5ad"/>
      <rect x="16" y="80" width="100" height="9" rx="2" fill="#3a372f"/>
      <rect x="128" y="80" width="40" height="9" rx="2" fill="#b8b5ad"/>
      <rect x="16" y="104" width="100" height="9" rx="2" fill="#3a372f"/>
      <rect x="132" y="104" width="36" height="9" rx="2" fill="#b8b5ad"/>
      <rect x="16" y="150" width="152" height="6" rx="3" fill="#26241e"/>
      <rect x="16" y="150" width="104" height="6" rx="3" fill="url(#goldG)"/>
      <rect x="16" y="166" width="152" height="26" rx="3" fill="url(#goldG)"/>
      <text x="92" y="184" text-anchor="middle" font-family="Arial, sans-serif" font-size="10" fill="#0a0a0a" letter-spacing="2">確認画面へ</text>
    </g>
  </g>
  <!-- laptop base -->
  <rect x="96" y="560" width="788" height="14" rx="6" fill="#161310" stroke="#c9a96e" stroke-opacity="0.2"/>

  <!-- Phone -->
  <g transform="translate(910,250)">
    <rect x="0" y="0" width="200" height="400" rx="28" fill="#111111" stroke="#c9a96e" stroke-opacity="0.28"/>
    <rect x="12" y="14" width="176" height="372" rx="18" fill="#0c0b09"/>
    <rect x="70" y="22" width="60" height="6" rx="3" fill="#26241e"/>
    <text x="28" y="60" font-family="Georgia, serif" font-size="15" fill="#f5f0e8" letter-spacing="2">焼肉 黒耀</text>
    <text x="28" y="78" font-family="Arial, sans-serif" font-size="7" fill="#c9a96e" letter-spacing="3">RESERVATION</text>
    <rect x="24" y="96" width="152" height="78" rx="8" fill="#161310" stroke="#c9a96e" stroke-opacity="0.16"/>
<rect x="34" y="106" width="16" height="16" rx="3" fill="#1a1814"/><rect x="54" y="106" width="16" height="16" rx="3" fill="#1a1814"/><rect x="74" y="106" width="16" height="16" rx="3" fill="#1a1814"/><rect x="94" y="106" width="16" height="16" rx="3" fill="url(#goldG)"/><rect x="114" y="106" width="16" height="16" rx="3" fill="#1a1814"/><rect x="134" y="106" width="16" height="16" rx="3" fill="#1a1814"/><rect x="154" y="106" width="16" height="16" rx="3" fill="#1a1814"/><rect x="34" y="128" width="16" height="16" rx="3" fill="#1a1814"/><rect x="54" y="128" width="16" height="16" rx="3" fill="#1a1814"/><rect x="74" y="128" width="16" height="16" rx="3" fill="#1a1814"/><rect x="94" y="128" width="16" height="16" rx="3" fill="#1a1814"/><rect x="114" y="128" width="16" height="16" rx="3" fill="#1a1814"/><rect x="134" y="128" width="16" height="16" rx="3" fill="url(#goldG)"/><rect x="154" y="128" width="16" height="16" rx="3" fill="#1a1814"/><rect x="34" y="150" width="16" height="16" rx="3" fill="#1a1814"/><rect x="54" y="150" width="16" height="16" rx="3" fill="url(#goldG)"/><rect x="74" y="150" width="16" height="16" rx="3" fill="#1a1814"/><rect x="94" y="150" width="16" height="16" rx="3" fill="#1a1814"/><rect x="114" y="150" width="16" height="16" rx="3" fill="#1a1814"/><rect x="134" y="150" width="16" height="16" rx="3" fill="#1a1814"/><rect x="154" y="150" width="16" height="16" rx="3" fill="#1a1814"/>
    <rect x="24" y="188" width="34" height="34" rx="6" fill="url(#goldG)"/>
    <rect x="64" y="188" width="34" height="34" rx="6" fill="#1a1814" stroke="#c9a96e" stroke-opacity="0.16"/>
    <rect x="104" y="188" width="34" height="34" rx="6" fill="#1a1814" stroke="#c9a96e" stroke-opacity="0.16"/>
    <rect x="144" y="188" width="32" height="34" rx="6" fill="#1a1814" stroke="#c9a96e" stroke-opacity="0.16"/>
    <rect x="24" y="236" width="152" height="10" rx="3" fill="#26241e"/>
    <rect x="24" y="256" width="120" height="10" rx="3" fill="#26241e"/>
    <rect x="24" y="330" width="152" height="30" rx="6" fill="url(#goldG)"/>
    <text x="100" y="350" text-anchor="middle" font-family="Arial, sans-serif" font-size="10" fill="#0a0a0a" letter-spacing="2">予約する</text>
  </g>

  <text x="120" y="650" font-family="Arial, sans-serif" font-size="13" fill="#7a7770" letter-spacing="2">React + TypeScript · Vite · SCSS Modules — Black &amp; Gold</text>
</svg>